<svg id="Capa_1" enable-background="new 0 0 512 512" height="512" viewBox="0 0 512 512" width="512" xmlns="http://www.w3.org/2000/svg"><g><circle id="XMLID_526_" cx="256" cy="256" fill="#db686b" r="256"/><path id="XMLID_540_" d="m512 256c0-141.487-114.5-256-256-256v512c141.482 0 256-114.495 256-256z" fill="#c21456"/><path d="m439.394 241h11.787c-3.252-42.716-20.281-81.637-46.632-112.335l-8.245 8.245c-6.483-7.635-13.577-14.733-21.208-21.219l8.24-8.24c-30.698-26.351-69.62-43.38-112.336-46.632v11.729c-9.915-.801-19.727-.829-30 0v-11.729c-42.716 3.252-81.637 20.28-112.335 46.632l8.24 8.24c-7.631 6.486-14.725 13.584-21.209 21.219l-8.245-8.245c-26.351 30.698-43.38 69.619-46.632 112.335h11.787c-.782 9.736-.837 19.54.011 30h-11.798c3.252 42.716 20.281 81.639 46.633 112.336l8.302-8.302c6.487 7.631 13.584 14.725 21.218 21.208l-8.307 8.307c30.698 26.352 69.62 43.38 112.335 46.632v-11.854c9.914.801 19.728.829 30 0v11.854c42.716-3.252 81.638-20.28 112.335-46.632l-8.307-8.308c7.634-6.482 14.732-13.576 21.218-21.208l8.302 8.303c26.352-30.698 43.38-69.62 46.632-112.336h-11.797c.792-9.776.848-19.582.011-30z" fill="#e1f1fd"/><path d="m439.394 241h11.787c-3.252-42.716-20.281-81.637-46.632-112.335l-8.245 8.245c-6.483-7.635-13.577-14.733-21.208-21.219l8.24-8.24c-30.698-26.351-69.62-43.38-112.336-46.632v11.729c-4.948-.399-9.949-.611-15-.611v368c5.051 0 10.052-.212 15-.611v11.854c42.716-3.252 81.638-20.28 112.335-46.632l-8.307-8.308c7.634-6.482 14.732-13.576 21.218-21.208l8.302 8.303c26.352-30.698 43.38-69.62 46.632-112.336h-11.797c.792-9.775.848-19.581.011-29.999z" fill="#cbe5fd"/><path d="m387.455 271h63.726c.747-9.812.771-19.871 0-30h-63.726z" fill="#2e5167"/><path d="m124.545 241h-63.725c-.747 9.812-.771 19.871 0 30h63.726v-30z" fill="#3d6c84"/><path d="m359.559 173.654 44.989-44.989c-6.522-7.598-13.615-14.69-21.213-21.213l-44.989 44.989z" fill="#2e5167"/><path d="m152.441 338.346-44.989 44.99c6.522 7.598 13.615 14.69 21.213 21.213l44.99-44.99z" fill="#3d6c84"/><path d="m173.655 152.441-44.989-44.99c-7.598 6.523-14.691 13.615-21.214 21.214l44.989 44.989z" fill="#3d6c84"/><path d="m338.346 359.559 44.99 44.99c7.598-6.522 14.691-13.615 21.213-21.213l-44.989-44.99z" fill="#2e5167"/><path d="m270.999 173.841h-29.999v90.186l55.975 37.318 16.641-24.961-42.616-28.411z" fill="#3d6c84"/><path d="m271 247.973-.001-74.132h-14.999v100.186l40.975 27.318 16.641-24.961z" fill="#2e5167"/><path d="m270.999 124.545.001-63.726c-9.833-.749-19.89-.77-30 0l-.001 63.726z" fill="#3d6c84"/><path d="m256 60.25v64.295h14.999l.001-63.726c-7.681-.585-12.606-.523-15-.569z" fill="#2e5167"/><path d="m241 387.455v63.726c9.833.749 19.889.77 30 0v-63.726z" fill="#3d6c84"/><path d="m256 387.455v64.295c2.135-.041 6.941.045 15-.569v-63.726z" fill="#2e5167"/></g></svg>