<?xml version="1.0" encoding="iso-8859-1"?>
<!-- Generator: Adobe Illustrator 19.0.0, SVG Export Plug-In . SVG Version: 6.00 Build 0)  -->
<svg version="1.1" id="Capa_1" xmlns="http://www.w3.org/2000/svg" xmlns:xlink="http://www.w3.org/1999/xlink" x="0px" y="0px"
	 viewBox="0 0 512 512" style="enable-background:new 0 0 512 512;" xml:space="preserve">
<path style="fill:#C7D5E0;" d="M488.871,386.003V107.14c0-13.213-10.711-23.924-23.924-23.924H47.053
	c-13.213,0-23.924,10.711-23.924,23.924v278.864l-17.98,0.003c-2.844,0-5.149,2.306-5.149,5.15v4.063
	c0,18.537,15.027,33.565,33.565,33.565h444.871c18.537,0,33.565-15.027,33.565-33.565v-4.063c0-2.844-2.305-5.15-5.149-5.15
	L488.871,386.003z"/>
<path style="fill:#95A7C1;" d="M511.996,391.153v4.062c0,18.538-15.028,33.567-33.567,33.567h-69.574v-42.779h97.991
	C509.69,386.003,511.996,388.309,511.996,391.153z"/>
<path style="fill:#69D7E0;" d="M460.908,356.945H51.092v-228.65c0-8.319,6.744-15.063,15.063-15.063h379.691
	c8.319,0,15.063,6.744,15.063,15.063V356.945z"/>
<path style="fill:#24CACE;" d="M460.907,128.293V356.94h-53.961V128.293c0-8.32-6.74-15.06-15.06-15.06h53.961
	C454.167,113.235,460.907,119.975,460.907,128.293z"/>
<path style="fill:#F5D647;" d="M307.783,407.391H204.217c-2.844,0-5.15-2.306-5.15-5.15v-16.238h113.866v16.238
	C312.934,405.085,310.628,407.391,307.783,407.391z"/>
<g>
</g>
<g>
</g>
<g>
</g>
<g>
</g>
<g>
</g>
<g>
</g>
<g>
</g>
<g>
</g>
<g>
</g>
<g>
</g>
<g>
</g>
<g>
</g>
<g>
</g>
<g>
</g>
<g>
</g>
</svg>
